{
  "accessors": [
    {
      "bufferView": 2,
      "componentType": 5126,
      "count": 6498,
      "max": [
        1.0735499858856201,
        0.6195150017738342,
        0.43657898902893066
      ],
      "min": [
        -0.6886500120162964,
        -0.6195150017738342,
        -0.3233819901943207
      ],
      "type": "VEC3"
    },
    {
      "bufferView": 2,
      "byteOffset": 77976,
      "componentType": 5126,
      "count": 6498,
      "max": [
        0.8477964997291565,
        1.0,
        0.9974545836448669
      ],
      "min": [
        -0.99840247631073,
        -1.0,
        -0.9627977013587952
      ],
      "type": "VEC3"
    },
    {
      "bufferView": 1,
      "componentType": 5126,
      "count": 6498,
      "max": [
        0.9941409826278687,
        1.9941400289535522
      ],
      "min": [
        0.005859000142663717,
        1.2871099710464478
      ],
      "type": "VEC2"
    },
    {
      "bufferView": 0,
      "componentType": 5125,
      "count": 9924,
      "type": "SCALAR"
    },
    {
      "bufferView": 2,
      "byteOffset": 155952,
      "componentType": 5126,
      "count": 5022,
      "max": [
        0.9250699877738953,
        0.17193299531936646,
        0.25804999470710754
      ],
      "min": [
        -0.7736459970474243,
        -0.17274600267410278,
        -0.20847700536251068
      ],
      "type": "VEC3"
    },
    {
      "bufferView": 2,
      "byteOffset": 216216,
      "componentType": 5126,
      "count": 5022,
      "max": [
        0.9932008385658264,
        1.0,
        0.9998929500579834
      ],
      "min": [
        -0.9982066750526428,
        -0.9987890124320984,
        -0.9990432262420654
      ],
      "type": "VEC3"
    },
    {
      "bufferView": 1,
      "byteOffset": 51984,
      "componentType": 5126,
      "count": 5022,
      "max": [
        0.9911149740219116,
        1.2762999534606934
      ],
      "min": [
        0.008568000048398972,
        1.0064799785614014
      ],
      "type": "VEC2"
    },
    {
      "bufferView": 0,
      "byteOffset": 39696,
      "componentType": 5125,
      "count": 29616,
      "type": "SCALAR"
    }
  ],
  "asset": {
    "extras": {
      "author": "Carlos.Maciel (https://sketchfab.com/Carlos.Maciel)",
      "license": "CC-BY-4.0 (http://creativecommons.org/licenses/by/4.0/)",
      "source": "https://sketchfab.com/3d-models/tuna-9f13325cce744c29b5c3bf28ead2a8e6",
      "title": "Tuna"
    },
    "generator": "Sketchfab-13.58.0",
    "version": "2.0"
  },
  "bufferViews": [
    {
      "buffer": 0,
      "byteLength": 158160,
      "name": "floatBufferViews",
      "target": 34963
    },
    {
      "buffer": 0,
      "byteLength": 92160,
      "byteOffset": 158160,
      "byteStride": 8,
      "name": "floatBufferViews",
      "target": 34962
    },
    {
      "buffer": 0,
      "byteLength": 276480,
      "byteOffset": 250320,
      "byteStride": 12,
      "name": "floatBufferViews",
      "target": 34962
    }
  ],
  "buffers": [
    {
      "byteLength": 526800,
      "uri": "scene.bin"
    }
  ],
  "images": [
    {
      "uri": "textures/Material.001_baseColor.png"
    },
    {
      "uri": "textures/Material.001_metallicRoughness.png"
    }
  ],
  "materials": [
    {
      "doubleSided": true,
      "name": "Material.001",
      "pbrMetallicRoughness": {
        "baseColorTexture": {
          "index": 0
        },
        "metallicFactor": 0.3459058160939157,
        "metallicRoughnessTexture": {
          "index": 1
        }
      }
    }
  ],
  "meshes": [
    {
      "name": "Object_0",
      "primitives": [
        {
          "attributes": {
            "NORMAL": 1,
            "POSITION": 0,
            "TEXCOORD_0": 2
          },
          "indices": 3,
          "material": 0,
          "mode": 4
        }
      ]
    },
    {
      "name": "Object_1",
      "primitives": [
        {
          "attributes": {
            "NORMAL": 5,
            "POSITION": 4,
            "TEXCOORD_0": 6
          },
          "indices": 7,
          "material": 0,
          "mode": 4
        }
      ]
    }
  ],
  "nodes": [
    {
      "children": [
        1
      ],
      "matrix": [
        1.0,
        0.0,
        0.0,
        0.0,
        0.0,
        2.220446049250313e-16,
        -1.0,
        0.0,
        0.0,
        1.0,
        2.220446049250313e-16,
        0.0,
        0.0,
        0.0,
        0.0,
        1.0
      ],
      "name": "Sketchfab_model"
    },
    {
      "children": [
        2,
        3
      ],
      "name": "tuna.obj.cleaner.materialmerger.gles"
    },
    {
      "mesh": 0,
      "name": "Object_2"
    },
    {
      "mesh": 1,
      "name": "Object_3"
    }
  ],
  "samplers": [
    {
      "magFilter": 9729,
      "minFilter": 9987,
      "wrapS": 10497,
      "wrapT": 10497
    }
  ],
  "scene": 0,
  "scenes": [
    {
      "name": "Sketchfab_Scene",
      "nodes": [
        0
      ]
    }
  ],
  "textures": [
    {
      "sampler": 0,
      "source": 0
    },
    {
      "sampler": 0,
      "source": 1
    }
  ]
}
